<svg width="27" height="31" viewBox="0 0 27 31" fill="none" xmlns="http://www.w3.org/2000/svg">
<path d="M27 5.16667L27 29.2782C27 30.2294 26.2449 31 25.3129 31L8.43804 31C7.50605 31 6.74969 30.2294 6.74969 29.2782C6.74969 28.327 7.50605 27.5564 8.43804 27.5564L23.6258 27.5564L23.6258 5.16667C23.6257 4.71016 23.4476 4.27228 23.1314 3.94942C22.8149 3.62644 22.385 3.44486 21.9374 3.44486L8.43804 3.44486C7.50619 3.44486 6.74992 2.67402 6.74969 1.72306C6.74969 0.831364 7.41408 0.097042 8.265 0.00882979L8.43804 5.3417e-08L21.9374 1.23357e-06C23.2801 1.35095e-06 24.5686 0.544734 25.5181 1.51367C26.4673 2.48249 26.9999 3.79663 27 5.16667ZM0.494392 16.7185C0.17792 16.3955 -1.1931e-06 15.9568 -1.17095e-06 15.5C0.000107836 15.0434 0.178017 14.6056 0.494393 14.2828L5.55697 9.11609C6.21599 8.44352 7.28463 8.44352 7.94365 9.11609C8.60246 9.78867 8.6026 10.8793 7.94365 11.5518L5.76214 13.7782L18.5632 13.7782C19.4949 13.7784 20.2501 14.5492 20.2503 15.5C20.2503 16.451 19.495 17.2228 18.5632 17.2231L5.76214 17.2231L7.94365 19.4494L6.74969 20.6667L5.55697 21.8852L0.494392 16.7185ZM7.94365 21.8852C7.2847 22.5577 6.21601 22.5575 5.55697 21.8852L7.94365 19.4494C8.60246 20.122 8.6026 21.2127 7.94365 21.8852Z" fill="white"/>
</svg>
